<?xml version="1.0" encoding="utf-8"?>
<svg version="1.1" id="Layer_1" xmlns="http://www.w3.org/2000/svg" xmlns:xlink="http://www.w3.org/1999/xlink" x="0px" y="0px"
	 width="25px" height="25px" viewBox="0 0 25 25" enable-background="new 0 0 25 25" xml:space="preserve">
<path d="M24.234,7.204C23.767,6.9,23.17,6.862,22.655,7.098l-3.356,1.548V8.589c0-0.8-0.655-1.447-1.45-1.447h-2.064V4.946
	c0-0.723-0.587-1.317-1.314-1.317H0.438C0.197,3.629,0,3.826,0,4.067c0,0.244,0.197,0.439,0.438,0.439H14.47
	c0.24,0,0.438,0.196,0.438,0.439v2.196H1.449C0.653,7.143,0,7.79,0,8.589v11.133c0,0.807,0.653,1.453,1.449,1.453h16.4
	c0.795,0,1.45-0.646,1.45-1.453v-0.051l3.356,1.541c0.224,0.105,0.454,0.158,0.696,0.158c0.31,0,0.611-0.086,0.884-0.256
	C24.719,20.801,25,20.285,25,19.723V8.595C25,8.033,24.719,7.511,24.234,7.204z M18.42,19.723c0,0.318-0.256,0.578-0.571,0.578
	h-16.4c-0.315,0-0.573-0.26-0.573-0.578V8.589c0-0.316,0.258-0.571,0.573-0.571h16.4c0.315,0,0.571,0.255,0.571,0.571v0.465V19.26
	V19.723z M24.124,19.723c0,0.27-0.137,0.504-0.356,0.648c-0.226,0.143-0.497,0.16-0.742,0.051l-3.727-1.725V9.615l3.726-1.72
	c0.244-0.114,0.518-0.092,0.743,0.052c0.219,0.145,0.356,0.379,0.356,0.648V19.723z"/>
</svg>