<?xml version="1.0" encoding="utf-8"?>
<!-- Generator: Adobe Illustrator 15.1.0, SVG Export Plug-In . SVG Version: 6.00 Build 0)  -->
<!DOCTYPE svg PUBLIC "-//W3C//DTD SVG 1.1//EN" "http://www.w3.org/Graphics/SVG/1.1/DTD/svg11.dtd">
<svg version="1.1" id="Layer_1" xmlns="http://www.w3.org/2000/svg" xmlns:xlink="http://www.w3.org/1999/xlink" x="0px" y="0px"
	 width="15px" height="13px" viewBox="0 0 15 13" enable-background="new 0 0 15 13" xml:space="preserve">
<g>
	<g>
		<path fill="#060B1F" d="M6.464,1.994C2.901,1.994,0,4.323,0,7.197c0,1.059,0.402,2.043,1.076,2.865C0.99,11.012,0.733,12.35,0,13
			c0,0,2.227-0.279,3.729-1.092C4.554,12.223,5.484,12.4,6.464,12.4c3.575,0,6.477-2.33,6.477-5.203
			C12.94,4.323,10.039,1.994,6.464,1.994z"/>
		<path fill="#060B1F" d="M15,5.204C15,2.331,12.111,0,8.537,0C5.963,0,3.741,1.215,2.694,2.973c1.069-0.616,2.368-0.979,3.77-0.979
			c3.575,0,6.477,2.329,6.477,5.204c0,1.1-0.432,2.117-1.151,2.957C13.229,10.783,15,11.008,15,11.008
			c-0.721-0.652-0.978-1.988-1.063-2.939C14.609,7.248,15,6.262,15,5.204z"/>
		<path fill="#FFFFFF" d="M3.113,6.5c0.424,0,0.771,0.312,0.771,0.697c0,0.385-0.347,0.695-0.771,0.695
			c-0.435,0-0.781-0.311-0.781-0.695C2.332,6.812,2.678,6.5,3.113,6.5z"/>
		<path fill="#FFFFFF" d="M6.464,6.5c0.436,0,0.781,0.312,0.781,0.697c0,0.385-0.346,0.695-0.781,0.695
			c-0.424,0-0.77-0.311-0.77-0.695C5.694,6.812,6.04,6.5,6.464,6.5z"/>
		<path fill="#FFFFFF" d="M9.826,6.5c0.436,0,0.781,0.312,0.781,0.697c0,0.385-0.346,0.695-0.781,0.695
			c-0.424,0-0.77-0.311-0.77-0.695C9.057,6.812,9.402,6.5,9.826,6.5z"/>
	</g>
</g>
</svg>
