<?xml version="1.0" encoding="utf-8"?>
<!-- Generator: Adobe Illustrator 15.1.0, SVG Export Plug-In . SVG Version: 6.00 Build 0)  -->
<!DOCTYPE svg PUBLIC "-//W3C//DTD SVG 1.1//EN" "http://www.w3.org/Graphics/SVG/1.1/DTD/svg11.dtd">
<svg version="1.1" id="Layer_1" xmlns="http://www.w3.org/2000/svg" xmlns:xlink="http://www.w3.org/1999/xlink" x="0px" y="0px"
	 width="15px" height="13px" viewBox="0 0 15 13" enable-background="new 0 0 15 13" xml:space="preserve">
<g>
	<g>
		<g>
			<g>
				<path fill="#F7931E" d="M7.497,3.757c1.071,0,1.949-0.843,1.949-1.879C9.445,0.842,8.567,0,7.497,0
					C6.427,0,5.57,0.842,5.57,1.878C5.57,2.915,6.427,3.757,7.497,3.757z"/>
				<path fill="#F7931E" d="M4.386,8.281h6.245c0.248,0,0.471-0.203,0.471-0.453c0-1.92-1.613-3.482-3.605-3.482
					c-1.967,0-3.581,1.562-3.581,3.482C3.916,8.078,4.117,8.281,4.386,8.281z"/>
				<path fill="#F7931E" d="M9.398,10.021l-1.02-0.143L7.922,8.988c-0.165-0.338-0.664-0.338-0.85,0L6.637,9.879l-1.018,0.143
					c-0.39,0.055-0.537,0.512-0.271,0.773l0.749,0.693l-0.188,0.98c-0.063,0.369,0.345,0.652,0.695,0.479l0.893-0.463l0.916,0.463
					c0.326,0.172,0.736-0.105,0.674-0.479l-0.166-0.98l0.727-0.693C9.936,10.533,9.766,10.076,9.398,10.021z"/>
				<path fill="#F7931E" d="M4.174,10.021L3.156,9.879L2.698,8.988c-0.164-0.338-0.662-0.338-0.828,0L1.413,9.879l-1.018,0.143
					c-0.368,0.055-0.537,0.512-0.249,0.773l0.727,0.693l-0.167,0.98c-0.063,0.369,0.322,0.652,0.673,0.479l0.916-0.463l0.893,0.463
					c0.349,0.172,0.759-0.105,0.697-0.479l-0.189-0.98l0.749-0.693C4.711,10.533,4.563,10.076,4.174,10.021z"/>
				<path fill="#F7931E" d="M14.6,10.021l-1.018-0.143l-0.457-0.891c-0.135-0.277-0.434-0.254-0.402-0.254
					c-0.193,0-0.35,0.1-0.426,0.254l-0.459,0.891l-1.016,0.143c-0.391,0.055-0.539,0.512-0.25,0.773l0.727,0.693l-0.166,0.98
					c-0.063,0.369,0.322,0.652,0.674,0.479l0.916-0.463l0.893,0.463c0.348,0.172,0.758-0.105,0.674-0.479l-0.166-0.98l0.727-0.693
					C15.137,10.533,14.99,10.076,14.6,10.021z"/>
			</g>
		</g>
	</g>
</g>
</svg>
