<?xml version="1.0" encoding="utf-8"?>
<!-- Generator: Adobe Illustrator 15.1.0, SVG Export Plug-In . SVG Version: 6.00 Build 0)  -->
<!DOCTYPE svg PUBLIC "-//W3C//DTD SVG 1.1//EN" "http://www.w3.org/Graphics/SVG/1.1/DTD/svg11.dtd">
<svg version="1.1" id="Layer_1" xmlns="http://www.w3.org/2000/svg" xmlns:xlink="http://www.w3.org/1999/xlink" x="0px" y="0px"
	 width="15px" height="13px" viewBox="0 0 15 13" enable-background="new 0 0 15 13" xml:space="preserve">
<g>
	<g>
		<path fill="#060B1F" d="M14.569,7.116c0.761-0.739,0.524-2.239-0.793-2.239l-3.463,0.002c0.138-0.718,0.318-1.911,0.312-2.021
			c-0.069-1.065-0.767-2.362-0.797-2.416C9.707,0.212,9.074-0.102,8.425,0.033C7.597,0.208,7.516,0.727,7.517,0.869
			c0,0,0.037,1.421,0.039,1.799c-0.395,0.854-1.771,3.1-2.179,3.271C5.28,5.882,5.162,5.85,5.049,5.85H0.678
			C0.298,5.85,0,6.142,0,6.506l0,5.926C0.026,12.749,0.304,13,0.635,13h3.928c0.345,0,0.628-0.277,0.628-0.619v-0.197
			c0,0,0.149-0.012,0.214,0.032c0.252,0.156,0.563,0.354,0.976,0.354h5.855c2.192,0,1.956-1.907,1.762-2.166
			c0.368-0.396,0.599-1.092,0.286-1.643C14.527,8.513,14.942,7.827,14.569,7.116z M4.42,12.381H0.632V6.468H4.42V12.381z
			 M13.545,7.065l-0.036,0.147c1.013,0.281,0.477,1.423-0.252,1.495l-0.034,0.147c0.963,0.241,0.507,1.417-0.252,1.495l-0.035,0.146
			c0.791,0.128,0.598,1.451-0.596,1.451l-5.964,0.002c-0.426,0-0.805-0.469-1.116-0.469H4.992V6.929
			c0.335-0.205,0.742-0.471,0.976-0.662c0.438-0.365,2.213-3.183,2.213-3.535c0-0.354-0.038-1.88-0.038-1.88
			s0.345-0.441,1.125-0.119c0,0,0.662,1.205,0.728,2.166c0,0-0.295,1.978-0.459,2.598h4.132C14.687,5.499,14.489,6.92,13.545,7.065z
			"/>
	</g>
</g>
</svg>
