<?xml version="1.0" encoding="utf-8"?>
<!-- Generator: Adobe Illustrator 15.1.0, SVG Export Plug-In . SVG Version: 6.00 Build 0)  -->
<!DOCTYPE svg PUBLIC "-//W3C//DTD SVG 1.1//EN" "http://www.w3.org/Graphics/SVG/1.1/DTD/svg11.dtd">
<svg version="1.1" id="Layer_1" xmlns="http://www.w3.org/2000/svg" xmlns:xlink="http://www.w3.org/1999/xlink" x="0px" y="0px"
	 width="45px" height="45px" viewBox="0 0 45 45" enable-background="new 0 0 45 45" xml:space="preserve">
<ellipse opacity="0.4" fill="#F1F2F2" cx="22.5" cy="22.5" rx="22.5" ry="22.48"/>
<g>
	<polygon fill="#092939" points="26.443,22.54 23.889,15.943 11.678,15.943 11.678,22.389 	"/>
	<g>
		<g>
			<rect x="28.428" y="24.922" fill="#BBBABA" width="7.85" height="2.309"/>
			<rect x="28.428" y="27.23" fill="#DBD9D8" width="7.85" height="2.309"/>
		</g>
		<g>
			<path fill="#0A3754" d="M22.266,25.049c0-0.635,0.515-1.149,1.148-1.149h8.242c0.635,0,1.15,0.515,1.15,1.149v2.182H22.266
				V25.049z"/>
			<path fill="#10405C" d="M32.807,27.23v2.182c0,0.634-0.516,1.149-1.15,1.149h-8.242c-0.634,0-1.148-0.516-1.148-1.149V27.23
				H32.807z"/>
		</g>
		<g>
			<path fill="#0D3344" d="M28.041,27.23v4.424c0,1.286-0.949,2.328-2.121,2.328H10.732c-1.171,0-2.119-1.042-2.119-2.328V27.23
				H28.041z"/>
			<path fill="#092939" d="M8.613,22.808c0-1.287,0.948-2.329,2.119-2.329H25.92c1.172,0,2.121,1.042,2.121,2.329v4.423H8.613
				V22.808z"/>
		</g>
		<g>
			<polygon fill="#0A3754" points="36.15,24.656 36.15,24.623 39.885,22.362 39.885,27.23 36.15,27.23 			"/>
			<polygon fill="#10405C" points="39.885,27.23 39.885,32.099 36.15,29.837 36.15,29.804 36.15,27.23 			"/>
		</g>
		<g>
			<g>
				<g>
					<path fill="#BBBABA" d="M11.678,27.094v-2.801c0-0.813,0.6-1.473,1.341-1.473h9.612c0.74,0,1.342,0.66,1.342,1.473v2.801
						H11.678z"/>
				</g>
				<g>
					<path fill="#DBD9D8" d="M23.973,29.892c0,0.814-0.602,1.476-1.342,1.476h-9.612c-0.741,0-1.341-0.661-1.341-1.476v-2.798
						h12.295V29.892z"/>
				</g>
			</g>
		</g>
	</g>
	<g>
		<circle cx="11.678" cy="15.905" r="4.343"/>
		<path fill="#3C585D" d="M5.771,15.905c0,3.259,2.644,5.901,5.906,5.901c3.264,0,5.906-2.642,5.906-5.901s-2.643-5.902-5.906-5.902
			C8.415,10.003,5.771,12.646,5.771,15.905z M15.587,17.406c-0.846,0-1.534-0.687-1.534-1.533c0-0.048,0.004-0.096,0.008-0.143
			c0.072-0.78,0.729-1.39,1.526-1.39c0.847,0,1.536,0.687,1.536,1.533c0,0.044-0.006,0.085-0.008,0.126
			C17.051,16.786,16.393,17.406,15.587,17.406z M12.035,19.263c0-0.848,0.686-1.533,1.535-1.533c0.846,0,1.533,0.685,1.533,1.533
			c0,0.846-0.688,1.533-1.533,1.533C12.721,20.795,12.035,20.109,12.035,19.263z M12.035,12.666c0-0.847,0.686-1.533,1.535-1.533
			c0.846,0,1.533,0.686,1.533,1.533c0,0.846-0.688,1.533-1.533,1.533C12.721,14.198,12.035,13.512,12.035,12.666z M11.271,12.646
			c0,0.713-0.488,1.31-1.146,1.481c-0.124,0.033-0.253,0.052-0.389,0.052c-0.332,0-0.639-0.106-0.891-0.286
			c-0.391-0.278-0.644-0.732-0.644-1.247c0-0.846,0.687-1.534,1.534-1.534S11.271,11.799,11.271,12.646z M8.183,19.263
			c0-0.848,0.687-1.533,1.534-1.533s1.534,0.685,1.534,1.533c0,0.846-0.687,1.533-1.534,1.533S8.183,20.109,8.183,19.263z
			 M6.164,15.834c0-0.241,0.057-0.469,0.156-0.671c0.154-0.319,0.416-0.575,0.739-0.723C7.256,14.352,7.471,14.3,7.697,14.3
			c0.85,0,1.535,0.687,1.535,1.535c0,0.846-0.686,1.533-1.535,1.533C6.852,17.367,6.164,16.681,6.164,15.834z"/>
		<circle fill="#1B525D" cx="11.679" cy="15.905" r="0.579"/>
	</g>
	<g>
		<circle cx="24.467" cy="15.943" r="4.343"/>
		<path fill="#3C585D" d="M18.561,15.943c0,3.259,2.643,5.901,5.906,5.901c3.262,0,5.906-2.642,5.906-5.901
			c0-3.26-2.645-5.902-5.906-5.902C21.203,10.042,18.561,12.683,18.561,15.943z M28.375,17.443c-0.846,0-1.533-0.686-1.533-1.532
			c0-0.049,0.002-0.096,0.008-0.143c0.07-0.78,0.727-1.391,1.525-1.391c0.848,0,1.535,0.687,1.535,1.534
			c0,0.044-0.004,0.084-0.006,0.126C29.84,16.824,29.18,17.443,28.375,17.443z M24.822,19.301c0-0.848,0.686-1.534,1.535-1.534
			c0.846,0,1.533,0.686,1.533,1.534c0,0.846-0.688,1.533-1.533,1.533C25.508,20.834,24.822,20.147,24.822,19.301z M24.822,12.704
			c0-0.847,0.686-1.534,1.535-1.534c0.846,0,1.533,0.687,1.533,1.534c0,0.846-0.688,1.533-1.533,1.533
			C25.508,14.237,24.822,13.55,24.822,12.704z M24.059,12.683c0,0.713-0.486,1.311-1.145,1.483c-0.125,0.032-0.255,0.051-0.39,0.051
			c-0.333,0-0.638-0.106-0.891-0.286c-0.39-0.279-0.644-0.732-0.644-1.248c0-0.846,0.688-1.533,1.534-1.533
			C23.373,11.15,24.059,11.837,24.059,12.683z M20.972,19.301c0-0.848,0.686-1.534,1.533-1.534c0.847,0,1.534,0.686,1.534,1.534
			c0,0.846-0.688,1.533-1.534,1.533C21.657,20.834,20.972,20.147,20.972,19.301z M18.951,15.873c0-0.242,0.058-0.469,0.156-0.672
			c0.156-0.318,0.418-0.574,0.74-0.722c0.195-0.089,0.411-0.141,0.639-0.141c0.848,0,1.535,0.687,1.535,1.535
			c0,0.846-0.688,1.532-1.535,1.532S18.951,16.719,18.951,15.873z"/>
		<circle fill="#1B525D" cx="24.467" cy="15.943" r="0.578"/>
	</g>
</g>
<path fill="#06A2DC" d="M22.5,0.06C10.074,0.06,0,10.125,0,22.54S10.074,45.02,22.5,45.02C34.927,45.02,45,34.955,45,22.54
	S34.927,0.06,22.5,0.06z M22.5,43.521c-11.598,0-21-9.395-21-20.981c0-11.587,9.402-20.982,21-20.982s21,9.395,21,20.982
	C43.5,34.127,34.098,43.521,22.5,43.521z"/>
</svg>
