<?xml version="1.0" encoding="utf-8"?>
<!-- Generator: Adobe Illustrator 15.1.0, SVG Export Plug-In . SVG Version: 6.00 Build 0)  -->
<!DOCTYPE svg PUBLIC "-//W3C//DTD SVG 1.1//EN" "http://www.w3.org/Graphics/SVG/1.1/DTD/svg11.dtd">
<svg version="1.1" id="Layer_1" xmlns="http://www.w3.org/2000/svg" xmlns:xlink="http://www.w3.org/1999/xlink" x="0px" y="0px"
	 width="30px" height="30px" viewBox="0 0 30 30" enable-background="new 0 0 30 30" xml:space="preserve">
<path fill="#000" d="M30,15.055c0-8.27-6.729-15-15-15c-8.271,0-15,6.73-15,15c0,4.367,1.877,8.306,4.87,11.052l-0.017,0.012
	l0.488,0.41c0.031,0.025,0.066,0.049,0.097,0.074c0.259,0.213,0.526,0.418,0.798,0.615c0.089,0.063,0.178,0.129,0.268,0.189
	c0.292,0.199,0.591,0.391,0.896,0.57c0.067,0.039,0.134,0.08,0.2,0.117c0.334,0.189,0.676,0.369,1.025,0.535
	c0.024,0.012,0.053,0.023,0.08,0.035c1.138,0.529,2.355,0.918,3.625,1.146c0.035,0.008,0.068,0.012,0.102,0.02
	c0.394,0.068,0.794,0.121,1.198,0.158c0.047,0.006,0.098,0.008,0.148,0.012c0.401,0.031,0.809,0.053,1.221,0.053
	c0.409,0,0.811-0.021,1.213-0.049c0.051-0.008,0.1-0.01,0.152-0.016c0.4-0.035,0.796-0.086,1.187-0.154
	c0.034-0.008,0.068-0.012,0.102-0.02c1.254-0.225,2.454-0.605,3.578-1.121c0.041-0.018,0.083-0.037,0.125-0.057
	c0.336-0.158,0.664-0.328,0.985-0.512c0.082-0.043,0.161-0.09,0.24-0.139c0.294-0.17,0.583-0.352,0.862-0.543
	c0.101-0.07,0.202-0.143,0.301-0.213c0.237-0.174,0.475-0.352,0.702-0.537c0.051-0.041,0.106-0.076,0.155-0.117l0.499-0.418
	l-0.015-0.012C28.102,23.402,30,19.445,30,15.055z M1.09,15.055C1.09,7.385,7.331,1.147,15,1.147c7.67,0,13.909,6.238,13.909,13.908
	c0,4.132-1.814,7.849-4.686,10.398c-0.158-0.107-0.321-0.209-0.484-0.293l-4.619-2.311c-0.415-0.205-0.674-0.623-0.674-1.086V20.15
	c0.107-0.131,0.222-0.281,0.338-0.443c0.598-0.846,1.077-1.785,1.427-2.795c0.692-0.328,1.137-1.018,1.137-1.794v-1.935
	c0-0.472-0.172-0.931-0.482-1.292V9.346c0.028-0.283,0.129-1.879-1.027-3.197C18.83,5,17.203,4.419,15,4.419
	c-2.203,0-3.832,0.581-4.837,1.729C9.007,7.465,9.108,9.063,9.135,9.346v2.546c-0.309,0.361-0.483,0.819-0.483,1.292v1.935
	c0,0.6,0.27,1.157,0.732,1.536c0.441,1.734,1.35,3.043,1.687,3.486v1.58c0,0.443-0.243,0.852-0.634,1.066l-4.314,2.354
	c-0.138,0.074-0.273,0.162-0.41,0.26C2.877,22.85,1.09,19.158,1.09,15.055z"/>
</svg>
