<?xml version="1.0" encoding="utf-8"?>
<!-- Generator: Adobe Illustrator 15.1.0, SVG Export Plug-In . SVG Version: 6.00 Build 0)  -->
<!DOCTYPE svg PUBLIC "-//W3C//DTD SVG 1.1//EN" "http://www.w3.org/Graphics/SVG/1.1/DTD/svg11.dtd">
<svg version="1.1" id="Layer_1" xmlns="http://www.w3.org/2000/svg" xmlns:xlink="http://www.w3.org/1999/xlink" x="0px" y="0px"
	 width="15px" height="13px" viewBox="0 0 15 13" enable-background="new 0 0 15 13" xml:space="preserve">
<g>
	<g>
		<g>
			<path fill="#F7931E" d="M0.423,5.883c-0.751,0.742-0.515,2.241,0.793,2.241l3.466-0.002c-0.126,0.718-0.321,1.91-0.313,2.021
				c0.07,1.065,0.768,2.362,0.796,2.415c0.122,0.229,0.767,0.543,1.407,0.409c0.829-0.174,0.91-0.693,0.907-0.836
				c0,0-0.036-1.42-0.038-1.799c0.402-0.855,1.771-3.099,2.181-3.272c0.105,0.06,0.213,0.09,0.33,0.09h4.381
				C14.701,7.15,15,6.856,15,6.494l-0.002-5.925C14.973,0.249,14.697,0,14.373,0h-3.936c-0.346,0-0.629,0.277-0.629,0.618v0.197
				c0,0-0.15,0.01-0.215-0.031C9.34,0.627,9.029,0.429,8.627,0.429H2.758c-2.192,0-1.955,1.907-1.752,2.167
				C0.628,2.991,0.397,3.688,0.719,4.238C0.477,4.488,0.05,5.174,0.423,5.883z M10.576,0.62h3.797v5.912h-3.797
				C10.576,6.533,10.576,0.62,10.576,0.62z M1.449,5.934l0.035-0.146C0.481,5.507,1.019,4.366,1.735,4.291L1.77,4.145
				C0.807,3.903,1.273,2.729,2.023,2.648l0.033-0.146c-0.781-0.128-0.597-1.45,0.608-1.45L8.631,1.05
				c0.414,0,0.805,0.471,1.115,0.471h0.27v4.551C9.67,6.276,9.262,6.542,9.029,6.734C8.596,7.098,6.815,9.916,6.815,10.27
				c0,0.353,0.038,1.879,0.038,1.879s-0.347,0.44-1.128,0.119c0,0-0.652-1.206-0.727-2.165c0,0,0.294-1.979,0.458-2.601H1.324
				C0.306,7.502,0.503,6.08,1.449,5.934z"/>
		</g>
	</g>
</g>
</svg>
