<?xml version="1.0" encoding="utf-8"?>
<!-- Generator: Adobe Illustrator 15.1.0, SVG Export Plug-In . SVG Version: 6.00 Build 0)  -->
<!DOCTYPE svg PUBLIC "-//W3C//DTD SVG 1.1//EN" "http://www.w3.org/Graphics/SVG/1.1/DTD/svg11.dtd">
<svg version="1.1" id="Layer_1" xmlns="http://www.w3.org/2000/svg" xmlns:xlink="http://www.w3.org/1999/xlink" x="0px" y="0px"
	 width="45px" height="45px" viewBox="0 0 45 45" enable-background="new 0 0 45 45" xml:space="preserve">
<circle opacity="0.4" fill="#F1F2F2" cx="22.5" cy="22.592" r="22.5"/>
<path fill="#FFFFFF" d="M22.5,0.092C10.073,0.092,0,10.167,0,22.592c0,12.428,10.073,22.5,22.5,22.5c12.427,0,22.5-10.072,22.5-22.5
	C45,10.167,34.927,0.092,22.5,0.092z M22.5,43.592c-11.597,0-21-9.401-21-21c0-11.597,9.402-21,21-21c11.598,0,21,9.402,21,21
	C43.5,34.19,34.098,43.592,22.5,43.592z"/>
<polygon fill="#231F20" points="9.887,22.084 9.877,37.27 18.736,37.279 18.706,25.561 26.873,25.582 26.965,37.459 35.8,37.444 
	35.764,22.092 41.199,22.108 23.043,4.063 4.463,22.001 "/>
</svg>
