<?xml version="1.0" encoding="utf-8"?>
<svg version="1.1" id="Layer_1" xmlns="http://www.w3.org/2000/svg" xmlns:xlink="http://www.w3.org/1999/xlink" x="0px" y="0px"
	 width="20px" height="20px" viewBox="0 0 20 20" enable-background="new 0 0 20 20" xml:space="preserve">
<path fill="#ffffff" d="M10,0C4.477,0,0,4.478,0,10s4.477,10,10,10c5.522,0,10-4.477,10-10S15.522,0,10,0z M10,18.031
	c-4.436,0-8.033-3.596-8.033-8.031S5.564,1.968,10,1.968c4.435,0,8.031,3.597,8.031,8.032S14.435,18.031,10,18.031z"/>
	<path fill="#ffffff" d="M15.473,16.081l-0.044,0.052c-0.791,0.908-3.155,2.002-5.347,2.002c-2.563,0-4.354-1.231-5.347-2.002
		l-0.043-0.052l0.017-0.06c0.277-1.72,1.21-3.099,2.636-3.887l0.102-0.057l0.081,0.08c0.677,0.677,1.582,0.972,2.555,0.972
		c0.977,0,1.878-0.295,2.555-0.972l0.08-0.08l0.104,0.057c1.423,0.788,2.359,2.167,2.636,3.887L15.473,16.081z M10.082,12.52
		c1.768,0,3.207-1.377,3.207-3.068c0-1.691-1.439-3.067-3.207-3.067c-1.768,0-3.207,1.375-3.207,3.067
		C6.875,11.143,8.314,12.52,10.082,12.52z"/>
</svg>