<?xml version="1.0" encoding="utf-8"?>
<!-- Generator: Adobe Illustrator 15.1.0, SVG Export Plug-In . SVG Version: 6.00 Build 0)  -->
<!DOCTYPE svg PUBLIC "-//W3C//DTD SVG 1.1//EN" "http://www.w3.org/Graphics/SVG/1.1/DTD/svg11.dtd">
<svg version="1.1" id="Layer_1" xmlns="http://www.w3.org/2000/svg" xmlns:xlink="http://www.w3.org/1999/xlink" x="0px" y="0px"
	 width="45px" height="45px" viewBox="0 0 45 45" enable-background="new 0 0 45 45" xml:space="preserve">
<ellipse opacity="0.4" fill="#F1F2F2" cx="22.5" cy="22.5" rx="22.49" ry="22.5"/>
<g>
	<g>
		
			<radialGradient id="SVGID_1_" cx="23.1611" cy="-4086.5364" r="18.6701" gradientTransform="matrix(0.9155 0 0 0.1075 1.7584 474.5737)" gradientUnits="userSpaceOnUse">
			<stop  offset="0.4648" style="stop-color:#000000"/>
			<stop  offset="0.6714" style="stop-color:#000000;stop-opacity:0.5"/>
			<stop  offset="0.711" style="stop-color:#000000;stop-opacity:0.4397"/>
			<stop  offset="1" style="stop-color:#000000;stop-opacity:0"/>
		</radialGradient>
		<path fill="url(#SVGID_1_)" d="M40.445,35.274c0,1.145-7.896,2.07-17.634,2.07c-9.741,0-17.636-0.926-17.636-2.07
			c0-1.147,7.895-2.067,17.636-2.067C32.549,33.207,40.445,34.127,40.445,35.274z"/>
		<g>
			<linearGradient id="SVGID_2_" gradientUnits="userSpaceOnUse" x1="23.1514" y1="16.4346" x2="23.1514" y2="33.4176">
				<stop  offset="0" style="stop-color:#000000"/>
				<stop  offset="1" style="stop-color:#5A5A5A"/>
			</linearGradient>
			<path fill="url(#SVGID_2_)" d="M11.095,33.896c-0.72,0-1.306-0.586-1.306-1.307V17.872c0-0.72,0.586-1.306,1.306-1.306h24.112
				c0.721,0,1.307,0.586,1.307,1.306V32.59c0,0.721-0.586,1.307-1.307,1.307H11.095z"/>
			<linearGradient id="SVGID_3_" gradientUnits="userSpaceOnUse" x1="23.1514" y1="17.2842" x2="23.1514" y2="33.6127">
				<stop  offset="0.0235" style="stop-color:#000000"/>
				<stop  offset="0.0606" style="stop-color:#5A5A5A"/>
				<stop  offset="0.9437" style="stop-color:#000000"/>
				<stop  offset="1" style="stop-color:#0A0A0A"/>
			</linearGradient>
			<path fill="url(#SVGID_3_)" d="M36.252,32.59c0,0.578-0.469,1.045-1.045,1.045H11.095c-0.577,0-1.044-0.467-1.044-1.045V17.872
				c0-0.576,0.468-1.044,1.044-1.044h24.112c0.576,0,1.045,0.468,1.045,1.044V32.59z"/>
			
				<radialGradient id="SVGID_4_" cx="23.1514" cy="25.7539" r="3.9087" gradientTransform="matrix(0.9996 0 0 1 0.01 0)" gradientUnits="userSpaceOnUse">
				<stop  offset="0.9249" style="stop-color:#8A8A8A"/>
				<stop  offset="1" style="stop-color:#121212"/>
			</radialGradient>
			<circle fill="url(#SVGID_4_)" cx="23.151" cy="25.754" r="3.907"/>
			<polygon fill="#383838" points="22.068,23.998 25.259,25.84 22.068,27.684 			"/>
			
				<linearGradient id="SVGID_5_" gradientUnits="userSpaceOnUse" x1="70.0215" y1="5.3955" x2="70.0215" y2="2.583" gradientTransform="matrix(0.9999 0.0107 -0.0107 0.9999 -46.7273 11.643)">
				<stop  offset="0.0909" style="stop-color:#707070"/>
				<stop  offset="0.2848" style="stop-color:#D0D1D1"/>
				<stop  offset="0.882" style="stop-color:#FFFFFF"/>
				<stop  offset="1" style="stop-color:#D5D6D5"/>
			</linearGradient>
			<polygon fill="url(#SVGID_5_)" points="36.934,17.661 9.503,17.64 9.555,15.101 36.986,15.122 			"/>
			<linearGradient id="SVGID_6_" gradientUnits="userSpaceOnUse" x1="23.2451" y1="14.7158" x2="23.2451" y2="17.8697">
				<stop  offset="0.0056" style="stop-color:#353535"/>
				<stop  offset="0.4607" style="stop-color:#151515"/>
				<stop  offset="0.7079" style="stop-color:#4F504F"/>
				<stop  offset="0.9944" style="stop-color:#000000"/>
			</linearGradient>
			<path fill="url(#SVGID_6_)" d="M9.542,15.817L9.503,17.64l0.17,0.001l3.047-2.537l-2.322-0.002L9.542,15.817z M20.658,17.649
				l2.321,0.002l3.046-2.537l-2.321-0.002L20.658,17.649z M14.004,17.643l2.323,0.002l3.047-2.537l-2.322-0.002L14.004,17.643z
				 M27.311,17.655l2.321,0.002l3.047-2.539h-2.322L27.311,17.655z M33.962,17.658l2.323,0.003l0.66-0.551l0.041-1.969
				L33.962,17.658z"/>
			<linearGradient id="SVGID_7_" gradientUnits="userSpaceOnUse" x1="22.6069" y1="10.3936" x2="23.0515" y2="12.9147">
				<stop  offset="0" style="stop-color:#F9F9F9"/>
				<stop  offset="0.1333" style="stop-color:#E8E8E8"/>
				<stop  offset="0.7636" style="stop-color:#FFFFFF"/>
				<stop  offset="1" style="stop-color:#D5D6D5"/>
			</linearGradient>
			<polygon fill="url(#SVGID_7_)" points="9.59,15.097 36.576,10.528 36.039,8.038 9.051,12.608 			"/>
			<linearGradient id="SVGID_8_" gradientUnits="userSpaceOnUse" x1="22.5229" y1="9.9136" x2="23.0463" y2="12.8818">
				<stop  offset="0.0056" style="stop-color:#000000"/>
				<stop  offset="0.1515" style="stop-color:#4F504F"/>
				<stop  offset="0.5393" style="stop-color:#151515"/>
				<stop  offset="0.9944" style="stop-color:#353535"/>
			</linearGradient>
			<path fill="url(#SVGID_8_)" d="M36.191,8.738l0.385,1.79l-0.166,0.027l-3.487-1.99l2.286-0.387L36.191,8.738z M25.604,12.385
				l-2.284,0.387l-3.486-1.99l2.285-0.387L25.604,12.385z M32.148,11.278l-2.284,0.387l-3.485-1.992l2.284-0.386L32.148,11.278z
				 M19.059,13.493l-2.284,0.389L13.29,11.89l2.284-0.388L19.059,13.493z M12.514,14.602l-2.285,0.387l-0.755-0.432l-0.418-1.931
				L12.514,14.602z"/>
			<g>
				<path d="M12.525,14.581c0.32,0.076,0.369,0.279,0.107,0.451l-0.593,0.39c-0.26,0.171-0.689,0.452-0.95,0.624l-0.592,0.388
					c-0.262,0.173-0.523,0.11-0.582-0.138L9.78,15.733c-0.059-0.248-0.155-0.654-0.213-0.902l-0.135-0.563
					c-0.06-0.248,0.154-0.389,0.474-0.313l0.728,0.174c0.319,0.076,0.844,0.201,1.165,0.277L12.525,14.581z"/>
				<path fill="#FFFFFF" d="M12.604,14.484c0.299,0.14,0.293,0.366-0.01,0.505l-0.691,0.314c-0.304,0.139-0.802,0.365-1.107,0.504
					l-0.69,0.316c-0.304,0.137-0.549,0.023-0.543-0.254l0.012-0.629c0.006-0.278,0.016-0.732,0.021-1.01L9.609,13.6
					c0.006-0.278,0.255-0.391,0.553-0.252l0.677,0.316c0.299,0.139,0.789,0.365,1.087,0.504L12.604,14.484z"/>
				
					<linearGradient id="SVGID_9_" gradientUnits="userSpaceOnUse" x1="56.335" y1="2.8774" x2="59.585" y2="2.8774" gradientTransform="matrix(0.9999 0.0107 -0.0107 0.9999 -46.7273 11.643)">
					<stop  offset="0" style="stop-color:#FFFFFF"/>
					<stop  offset="1" style="stop-color:#969698"/>
				</linearGradient>
				<path fill="url(#SVGID_9_)" d="M12.604,14.484l-0.678-0.315c-0.051-0.023-0.107-0.05-0.167-0.078
					c-0.357,0.461-1.117,0.779-1.988,0.779c-0.064,0-0.127-0.002-0.188-0.006c-0.003,0.139-0.005,0.271-0.008,0.377L9.563,15.87
					c-0.006,0.277,0.24,0.391,0.543,0.254l0.69-0.316c0.305-0.139,0.803-0.365,1.107-0.504l0.691-0.314
					C12.897,14.85,12.903,14.624,12.604,14.484z"/>
				<g>
					<path fill="#CDCAE5" d="M10.691,13.959c-0.004,0.203-0.215,0.368-0.473,0.368c-0.256,0-0.46-0.166-0.457-0.37
						c0.005-0.203,0.217-0.369,0.473-0.369C10.492,13.588,10.695,13.754,10.691,13.959z"/>
					
						<linearGradient id="SVGID_10_" gradientUnits="userSpaceOnUse" x1="56.6172" y1="1.7061" x2="57.3389" y2="1.7061" gradientTransform="matrix(0.9999 0.0107 -0.0107 0.9999 -46.7273 11.643)">
						<stop  offset="0.1404" style="stop-color:#FFFFFF"/>
						<stop  offset="0.882" style="stop-color:#ACABAE"/>
					</linearGradient>
					<path fill="url(#SVGID_10_)" d="M10.588,13.959c-0.003,0.158-0.168,0.286-0.367,0.287c-0.199,0-0.357-0.129-0.354-0.289
						c0.003-0.158,0.167-0.287,0.366-0.287S10.592,13.799,10.588,13.959z"/>
				</g>
				<g>
					<path fill="#CDCAE5" d="M10.568,15.463c-0.004,0.204-0.215,0.369-0.473,0.369c-0.256,0-0.461-0.166-0.456-0.369
						c0.004-0.206,0.216-0.371,0.472-0.371C10.367,15.093,10.572,15.258,10.568,15.463z"/>
					
						<linearGradient id="SVGID_11_" gradientUnits="userSpaceOnUse" x1="56.5098" y1="3.2114" x2="57.2324" y2="3.2114" gradientTransform="matrix(0.9999 0.0107 -0.0107 0.9999 -46.7273 11.643)">
						<stop  offset="0.1404" style="stop-color:#FFFFFF"/>
						<stop  offset="0.882" style="stop-color:#ACABAE"/>
					</linearGradient>
					<path fill="url(#SVGID_11_)" d="M10.465,15.463c-0.003,0.158-0.168,0.287-0.367,0.287s-0.357-0.129-0.355-0.287
						c0.004-0.16,0.168-0.289,0.367-0.289C10.309,15.175,10.469,15.303,10.465,15.463z"/>
				</g>
			</g>
		</g>
	</g>
</g>
<path fill="#FFFFFF" d="M22.52,0C10.1,0,0.03,10.074,0.03,22.5C0.03,34.927,10.1,45,22.52,45c12.421,0,22.49-10.073,22.49-22.5
	C45.01,10.074,34.941,0,22.52,0z M22.52,43.5c-11.593,0-20.991-9.402-20.991-21c0-11.597,9.398-21,20.991-21
	c11.592,0,20.991,9.403,20.991,21C43.511,34.098,34.112,43.5,22.52,43.5z"/>
</svg>
